# xmcd
#
# Track frame offsets:
#	155
#	12215
#	20740
#	32535
#	39890
#	52012
#	64772
#	77832
#	90517
#	105352
#	120530
#	128007
#	138387
#	145115
#	157697
#	168015
#	180052
#	187010
#
# Disc length: 2653 seconds
#
# Revision: 1
# Processed by: cddbd v1.4PL0 Copyright (c) Steve Scherf et al.
# Submitted via: EasyCDDAExtractor 5.1.0
#
DISCID=d10a5b12
DTITLE=Jean Pâques - Joue Jean Pâques - Vol.20
DYEAR=1900
DGENRE=Piano Bar
TTITLE0=Indicatif Sweet melody, Bientôt
TTITLE1=Si tu veux
TTITLE2=Si c'était vrai
TTITLE3=Sweet surrender
TTITLE4=Quand
TTITLE5=Ne crois pas
TTITLE6=Lovely
TTITLE7=For you only
TTITLE8=Je vais
TTITLE9=T'aimer
TTITLE10=Once again
TTITLE11=Dis-le moi
TTITLE12=Just dream
TTITLE13=Beautiful eyes
TTITLE14=My love
TTITLE15=Jour après jour
TTITLE16=Quand le soir
TTITLE17=Rêver seul
EXTD=
EXTT0=
EXTT1=
EXTT2=
EXTT3=
EXTT4=
EXTT5=
EXTT6=
EXTT7=
EXTT8=
EXTT9=
EXTT10=
EXTT11=
EXTT12=
EXTT13=
EXTT14=
EXTT15=
EXTT16=
EXTT17=
PLAYORDER=
